<svg id="Layer_1" viewBox="0 0 512 512" xmlns="http://www.w3.org/2000/svg" data-name="Layer 1"><g fill-rule="evenodd"><path d="m255.994 365.99c-10.4 0-18.921-8.52-18.921-18.92l.002-119.28c0-10.41 8.519-18.93 18.918-18.93 10.413 0 18.93 8.52 18.93 18.93l.002 119.28c0 10.4-8.521 18.92-18.932 18.92zm0 69.46c-12.739 0-23.16-10.42-23.16-23.16h.003c0-12.74 10.417-23.17 23.156-23.17 12.753 0 23.169 10.43 23.169 23.17h.001c0 12.74-10.421 23.16-23.171 23.16zm10.863-279.96c-2.362-4.08-6.143-6.26-10.863-6.26s-8.489 2.18-10.851 6.26l-165.548 286.74c-2.358 4.09-2.361 8.45 0 12.54 2.362 4.08 6.14 6.26 10.859 6.26h331.09c4.721 0 8.499-2.18 10.86-6.26 2.362-4.09 2.36-8.45 0-12.54z" fill="#f2535f"/><g fill="#052f81"><path d="m99.435 113.91c-3.339-1.93-4.481-6.2-2.541-9.54 1.934-3.34 6.2-4.48 9.54-2.54l40.273 23.25c3.339 1.93 4.477 6.2 2.536 9.54-1.929 3.34-6.2 4.47-9.54 2.54l-40.27-23.25zm62.15-67.23c-1.926-3.34-.79-7.61 2.54-9.55 3.342-1.93 7.61-.79 9.55 2.55l23.253 40.27c1.931 3.33.787 7.61-2.553 9.54-3.328 1.93-7.61.79-9.541-2.54zm271.161 142.56c3.861 0 6.999 3.13 6.999 7 .003 3.87-3.14 7-7 7h-46.497c-3.871 0-7.003-3.13-7.003-7s3.13-7 7-7zm-27.18-87.41c3.339-1.94 7.609-.8 9.539 2.54 1.933 3.339.8 7.61-2.539 9.54l-40.268 23.25c-3.339 1.93-7.613.8-9.542-2.54-1.937-3.34-.799-7.61 2.54-9.54l40.271-23.25zm-67.239-62.15c1.94-3.34 6.208-4.48 9.548-2.55 3.332 1.94 4.47 6.21 2.54 9.55l-23.248 40.27c-1.931 3.329-6.212 4.47-9.542 2.54-3.337-1.93-4.481-6.21-2.55-9.54zm-89.329-20.18c0-3.87 3.137-7 6.997-7s7 3.13 7 7l.002 46.5c0 3.86-3.132 7-7.002 7-3.856 0-7-3.14-7-7zm-169.741 183.74c-3.861 0-7.002-3.13-7.002-7s3.14-7 7-7h46.501c3.87 0 6.999 3.13 6.999 7 .003 3.87-3.131 7-7 7z"/><path d="m300.166 136.26c-9.23-15.99-25.702-25.5-44.172-25.5-18.459 0-34.93 9.51-44.16 25.5l-165.549 286.74c-9.229 15.99-9.231 35.01-.001 51 9.231 15.99 25.7 25.5 44.17 25.5h331.09c18.473 0 34.94-9.51 44.169-25.5 9.232-15.99 9.23-35.01 0-51l-165.548-286.74zm-22.918 13.23 165.546 286.74c4.5 7.8 4.5 16.73 0 24.54-4.5 7.8-12.24 12.26-21.251 12.26h-331.086c-9.009 0-16.753-4.46-21.254-12.26-4.5-7.81-4.5-16.74 0-24.54l165.551-286.74c4.5-7.8 12.239-12.26 21.239-12.26 9.014 0 16.75 4.46 21.25 12.26h.004z"/></g></g></svg>