<?xml version="1.0" encoding="UTF-8"?>
<svg version="1.1" xmlns="http://www.w3.org/2000/svg" width="512" height="512">
<path d="M0 0 C2.73698242 -0.00067342 5.47395782 -0.00494363 8.2109375 -0.00869751 C13.9088995 -0.01410322 19.60674355 -0.00710207 25.3046875 0.00732422 C31.82303324 0.02364064 38.3410971 0.0183484 44.85943604 0.001845 C50.5307246 -0.01192017 56.20193005 -0.01361741 61.87322998 -0.00583899 C65.22773652 -0.00124363 68.58200953 -0.00154479 71.93652344 -0.01044846 C125.03298923 -0.12051357 170.18343859 14.75598895 208.8125 51.9609375 C240.23276566 84.71323437 256.09283026 127.414944 256.4140625 172.390625 C256.43282328 174.07456356 256.45240012 175.7584932 256.4727478 177.44241333 C256.5235574 181.82503952 256.56345309 186.20769602 256.60089111 190.5904541 C256.64125606 195.08251118 256.69219824 199.5744478 256.7421875 204.06640625 C256.83833885 212.84366698 256.92293327 221.62098853 257 230.3984375 C257.62163528 230.5311203 258.24327057 230.6638031 258.88374329 230.80050659 C259.6972374 230.97703766 260.51073151 231.15356873 261.34887695 231.33544922 C262.15613724 231.50938202 262.96339752 231.68331482 263.79512024 231.86251831 C270.49384134 233.49071285 274.79866137 237.83125338 278.7734375 243.23828125 C282.18175415 249.24082618 282.29696159 254.8590506 282.29052734 261.57543945 C282.29724457 262.58598389 282.30396179 263.59652832 282.31088257 264.63769531 C282.32984437 267.97075347 282.33378591 271.30361005 282.3359375 274.63671875 C282.3423668 276.96070945 282.34909526 279.28469934 282.35610962 281.60868835 C282.36807793 286.47832109 282.37179091 291.3478829 282.37060547 296.2175293 C282.37040234 302.44495049 282.39770112 308.67191505 282.43214989 314.8992281 C282.45443197 319.69919405 282.45844259 324.49905036 282.45738602 329.29906273 C282.45974012 331.59428671 282.46855282 333.8895138 282.48405075 336.18468666 C282.503736 339.40119657 282.49786204 342.61672485 282.48583984 345.83325195 C282.49707886 346.77329575 282.50831787 347.71333954 282.51989746 348.68186951 C282.44590007 356.50755945 280.12605839 362.14681879 275.875 368.6484375 C269.84402572 374.41719551 264.27334529 376.53545758 256 376.3984375 C256.00888245 377.44111786 256.01776489 378.48379822 256.0269165 379.55807495 C256.10822591 389.41471521 256.16807237 399.27128685 256.20724869 409.12818718 C256.22806721 414.19497602 256.2562795 419.26149273 256.30175781 424.328125 C256.34542084 429.22350847 256.36918019 434.11863122 256.37950897 439.01419449 C256.38686376 440.8759992 256.40122553 442.73779066 256.42292023 444.59948349 C256.58042291 458.6835066 255.63175023 468.54323361 245.515625 479.1953125 C240.06749124 483.96665946 233.09851585 487.52770997 225.766922 487.51869202 C224.90455429 487.52006668 224.04218658 487.52144135 223.15368652 487.52285767 C222.21069702 487.51926239 221.26770752 487.51566711 220.29614258 487.51196289 C218.80318916 487.51218193 218.80318916 487.51218193 217.28007507 487.5124054 C213.98487175 487.51170782 210.68972471 487.50392261 207.39453125 487.49609375 C205.11195405 487.49422902 202.82937645 487.49280538 200.54679871 487.49180603 C194.53474831 487.48798517 188.52272202 487.47815854 182.51068115 487.46710205 C176.37756679 487.45687868 170.24444855 487.45230642 164.11132812 487.44726562 C152.07420815 487.43653591 140.03710608 487.41946464 128 487.3984375 C127.938125 488.3265625 127.87625 489.2546875 127.8125 490.2109375 C127 493.3984375 127 493.3984375 124.89909363 495.2481842 C121.30698805 496.67339905 118.48119183 496.78652859 114.61450195 496.80249023 C113.88856339 496.80935349 113.16262482 496.81621674 112.41468811 496.82328796 C110.02235155 496.84153947 107.63067232 496.83771888 105.23828125 496.83203125 C103.56544279 496.83659594 101.89260621 496.84190237 100.21977234 496.84791565 C96.71357611 496.85684508 93.20760763 496.85442805 89.70141602 496.84448242 C85.23056499 496.8330304 80.76050825 496.85314661 76.28976154 496.88239956 C72.83309511 496.90084581 69.3766157 496.90045179 65.91991234 496.89476204 C64.27305174 496.89460965 62.6261778 496.90058519 60.9793644 496.91305351 C50.17529242 496.98329351 40.67241181 496.67287639 32.125 489.2734375 C26.40687585 482.91996623 24.26686861 475.5275591 24.61328125 467.0703125 C25.62938333 460.04997088 29.04487462 454.35356288 34 449.3984375 C40.10162797 445.11080703 45.23363819 444.24955186 52.53491211 444.20556641 C53.28824326 444.19738892 54.0415744 444.18921143 54.81773376 444.18078613 C57.30426246 444.15602457 59.7907346 444.13944341 62.27734375 444.125 C63.12797457 444.11967632 63.97860538 444.11435265 64.85501289 444.10886765 C69.35409772 444.08218125 73.85315518 444.06278861 78.35229492 444.04833984 C82.0742235 444.03498062 85.79560641 444.00708571 89.51733398 443.96630859 C94.01535904 443.91703125 98.51288788 443.89222577 103.01117134 443.88511276 C104.72361231 443.87839709 106.43604206 443.8631667 108.14832878 443.83922195 C110.54470575 443.80761185 112.93916277 443.80752591 115.33569336 443.81494141 C116.04079041 443.79853607 116.74588745 443.78213074 117.47235107 443.76522827 C121.32106402 443.81392862 122.91752869 444.33340854 125.97901917 446.74740601 C128 449.3984375 128 449.3984375 128 452.3984375 C139.40488844 452.3604177 150.80944767 452.30111016 162.214077 452.21453476 C167.50959269 452.17500603 172.80494075 452.14284403 178.10058594 452.12744141 C183.21010394 452.11231037 188.31916124 452.07792812 193.42847443 452.03012848 C195.37888843 452.01527796 197.3293682 452.00739439 199.27983856 452.00655365 C202.00965131 452.00419326 204.73818123 451.97718924 207.46777344 451.94433594 C208.27625732 451.9493663 209.08474121 451.95439667 209.91772461 451.95957947 C213.32407829 451.89604663 215.60118503 451.65350922 218.49914551 449.80004883 C220.53160549 446.54778225 220.51874923 444.25479652 220.54589844 440.42675781 C220.55623611 439.7336702 220.56657379 439.04058258 220.57722473 438.32649231 C220.60664696 436.04294507 220.60815168 433.76028437 220.609375 431.4765625 C220.62435717 429.8904247 220.6410844 428.30430251 220.65948486 426.71820068 C220.70316707 422.54908531 220.72315921 418.38018038 220.73822021 414.21087646 C220.7577883 409.95425977 220.79975859 405.69787044 220.83984375 401.44140625 C220.9151552 393.09380948 220.96544078 384.74630198 221 376.3984375 C219.0061849 376.19295247 217.01236979 375.98746745 215.01855469 375.78198242 C210.44307964 374.91259789 208.2625751 371.76746196 205.6875 368.1484375 C205.130625 367.2409375 204.57375 366.3334375 204 365.3984375 C203.72027344 366.20925781 203.44054687 367.02007812 203.15234375 367.85546875 C197.20409346 384.28488033 187.8685327 397.35411197 172 405.3984375 C161.2771265 409.90336428 150.93314595 411.55285878 139.38702393 411.53215027 C137.98064545 411.5355486 137.98064545 411.5355486 136.54585528 411.53901559 C133.42020592 411.54531979 130.29460031 411.54452853 127.16894531 411.54370117 C124.92125391 411.5466949 122.67356302 411.55009793 120.4258728 411.55387878 C114.33069112 411.56270138 108.23552349 411.56505617 102.14033604 411.56569457 C98.3290168 411.56640608 94.51770111 411.56854233 90.70638275 411.57119179 C78.08680169 411.57996267 65.46723086 411.58461222 52.84764758 411.58386131 C52.1683145 411.58382136 51.48898143 411.5837814 50.7890625 411.58374023 C50.10889284 411.58369935 49.42872318 411.58365847 48.72794232 411.58361635 C37.71111539 411.58321012 26.69432268 411.59277567 15.67750564 411.6068786 C4.34542654 411.62126977 -6.98663071 411.62796447 -18.31872106 411.62728482 C-24.67272935 411.6270303 -31.02669891 411.62985635 -37.38069916 411.64046288 C-43.35939801 411.65017072 -49.3380213 411.6502046 -55.31672287 411.64294624 C-57.50476823 411.64190373 -59.69281836 411.6442434 -61.88085556 411.6503067 C-82.67130092 411.70416499 -100.37861895 410.2843248 -117 396.3984375 C-117.71929687 395.80417969 -118.43859375 395.20992188 -119.1796875 394.59765625 C-127.5531328 386.98987618 -133.02042119 376.19941068 -136 365.3984375 C-136.36351562 365.94113281 -136.72703125 366.48382813 -137.1015625 367.04296875 C-137.60429687 367.75839844 -138.10703125 368.47382813 -138.625 369.2109375 C-139.11226563 369.91863281 -139.59953125 370.62632812 -140.1015625 371.35546875 C-143.74013396 375.2710508 -147.60153586 376.56110086 -152.83691406 376.81835938 C-154.72959725 376.85151795 -156.62265142 376.86679269 -158.515625 376.8671875 C-159.52663269 376.87480103 -160.53764038 376.88241455 -161.57928467 376.89025879 C-163.71412698 376.90103895 -165.84902195 376.90392139 -167.98388672 376.89941406 C-171.2258465 376.89844472 -174.46541455 376.94003004 -177.70703125 376.984375 C-179.78905761 376.98958498 -181.87109212 376.99227014 -183.953125 376.9921875 C-184.91075745 377.00858276 -185.86838989 377.02497803 -186.8550415 377.04187012 C-194.54224615 376.96418932 -201.11564992 374.8911787 -206.91973877 369.67224121 C-213.44276147 362.85463715 -214.44737201 355.02965148 -214.40405273 345.99438477 C-214.41091599 344.98354828 -214.41777924 343.97271179 -214.42485046 342.9312439 C-214.44306552 339.60896529 -214.43928846 336.2871613 -214.43359375 332.96484375 C-214.43815799 330.64371081 -214.44346429 328.32257922 -214.44947815 326.00144958 C-214.45839882 321.1437327 -214.4559978 316.28618032 -214.44604492 311.4284668 C-214.43455534 305.21677101 -214.45477252 299.0056437 -214.48396206 292.79402256 C-214.50234572 288.00262369 -214.50202725 283.21136052 -214.49632454 278.41993523 C-214.4961716 276.13030131 -214.50219327 273.84065804 -214.51461601 271.55105782 C-214.52956508 268.34430838 -214.51881943 265.13860252 -214.50170898 261.93188477 C-214.51137695 260.99498306 -214.52104492 260.05808136 -214.53100586 259.0927887 C-214.43444221 250.40967458 -211.60927232 243.318548 -205.69921875 236.90234375 C-200.64421727 232.42837693 -195.57378587 231.28754837 -189 230.3984375 C-188.99635437 229.49959839 -188.99270874 228.60075928 -188.98895264 227.67468262 C-188.95064579 219.08772141 -188.89332585 210.5011237 -188.81609726 201.91442108 C-188.77705122 197.50283092 -188.74465793 193.09142759 -188.72900391 188.6796875 C-188.63195765 163.18489981 -187.86173239 138.61877353 -179 114.3984375 C-178.57074219 113.19703125 -178.14148438 111.995625 -177.69921875 110.7578125 C-169.13373825 88.07738527 -156.09406072 69.32952206 -140 51.3984375 C-139.39929688 50.72425781 -138.79859375 50.05007812 -138.1796875 49.35546875 C-132.46816893 43.31388755 -125.60822613 38.40478753 -119 33.3984375 C-118.17628906 32.76808594 -117.35257812 32.13773438 -116.50390625 31.48828125 C-81.76038552 6.01772793 -42.03276526 -0.11156481 0 0 Z M-113.59765625 76.0078125 C-114.91503914 77.31876913 -116.24611764 78.61805923 -117.6328125 79.85546875 C-138.63285273 98.93142153 -149.55180285 130.00458418 -153 157.3984375 C-153.08326754 159.92656517 -153.11784931 162.45658911 -153.11352539 164.98608398 C-153.11367142 165.70887039 -153.11381744 166.4316568 -153.1139679 167.17634583 C-153.11327699 169.54077261 -153.10552352 171.9051184 -153.09765625 174.26953125 C-153.09578914 175.91862444 -153.09436662 177.56771819 -153.09336853 179.21681213 C-153.0895664 183.53878331 -153.07975597 187.86072042 -153.06866455 192.18267822 C-153.05840071 196.60029642 -153.05386029 201.01792017 -153.04882812 205.43554688 C-153.03813147 214.08985931 -153.02108296 222.74414416 -153 231.3984375 C-151.0082194 231.86433919 -149.0164388 232.33024089 -147.0246582 232.79614258 C-143.94148172 233.71332531 -142.2009858 235.07168109 -140 237.3984375 C-138.77315007 239.69878111 -137.89917054 241.93754971 -137 244.3984375 C-136.67 244.3984375 -136.34 244.3984375 -136 244.3984375 C-135.76925781 243.31046875 -135.53851563 242.2225 -135.30078125 241.1015625 C-129.01895445 212.41739195 -129.01895445 212.41739195 -120 203.3984375 C-119.89218432 201.49752772 -119.85372465 199.5926512 -119.84228516 197.6887207 C-119.83202301 196.46687576 -119.82176086 195.24503082 -119.81118774 193.98616028 C-119.80603086 193.00001708 -119.80603086 193.00001708 -119.80076981 191.9939518 C-119.7889984 189.93802309 -119.76954754 187.88230613 -119.74765015 185.82646179 C-119.68599577 179.97951362 -119.63209702 174.13258303 -119.59863281 168.28540039 C-119.57762567 164.71141704 -119.5422669 161.13781284 -119.49787521 157.56404686 C-119.48375378 156.20421009 -119.4750015 154.84430616 -119.47182083 153.4843998 C-119.46688397 151.57455955 -119.44206663 149.6648025 -119.41650391 147.75512695 C-119.40841705 146.67004349 -119.4003302 145.58496002 -119.39199829 144.46699524 C-118.77503788 139.63743686 -116.87472475 135.60297578 -113 132.5859375 C-108.12084822 129.02822266 -103.84547371 128.85700426 -98 129.3984375 C-92.72677847 131.22378341 -90.20308914 134.00562953 -87 138.3984375 C-85.83597273 141.89051931 -85.78881492 144.78991522 -85.68359375 148.47265625 C-85.6524221 149.49840508 -85.6524221 149.49840508 -85.62062073 150.5448761 C-85.55533846 152.7251296 -85.49633983 154.90550155 -85.4375 157.0859375 C-85.39429447 158.56576736 -85.35067953 160.04558533 -85.30664062 161.52539062 C-85.19967917 165.14961372 -85.09835177 168.77396939 -85 172.3984375 C-84.43716309 172.19686035 -83.87432617 171.9952832 -83.29443359 171.78759766 C-80.65922677 170.85262821 -78.01732472 169.93808837 -75.375 169.0234375 C-74.04855469 168.54777344 -74.04855469 168.54777344 -72.6953125 168.0625 C-59.77876771 163.63397036 -46.72798699 163.10138105 -33.2109375 163.13964844 C-31.57643479 163.13693097 -29.9419333 163.13336584 -28.30743408 163.12902832 C-23.91073797 163.11999179 -19.51413682 163.12341211 -15.11743927 163.12978649 C-10.49023708 163.13489215 -5.86304239 163.13014246 -1.23583984 163.12701416 C6.53093914 163.12338771 14.29767995 163.12813877 22.06445312 163.13769531 C31.01108422 163.1485773 39.95762412 163.14505078 48.90425301 163.1340425 C56.62104631 163.12493181 64.33781235 163.12370276 72.0546093 163.12891984 C76.64801399 163.13201883 81.24137598 163.13250643 85.83477783 163.12584686 C90.15561386 163.12001869 94.47633366 163.12416907 98.79715729 163.13563538 C100.3715928 163.13825297 101.94603829 163.13756733 103.52046967 163.13311005 C116.621297 163.09947443 129.27820864 163.94347182 141.6875 168.4609375 C142.45771484 168.72970703 143.22792969 168.99847656 144.02148438 169.27539062 C146.01776455 169.97330549 148.00924103 170.68492619 150 171.3984375 C150.99 171.7284375 151.98 172.0584375 153 172.3984375 C153.01458252 171.49077637 153.02916504 170.58311523 153.04418945 169.64794922 C153.10548149 166.2593444 153.17967576 162.87152061 153.26245117 159.48339844 C153.29557135 158.02094042 153.32364305 156.55835855 153.34643555 155.09570312 C153.38022175 152.98514347 153.4325438 150.87570564 153.48828125 148.765625 C153.51446533 147.49831543 153.54064941 146.23100586 153.56762695 144.92529297 C154.11113536 140.49190934 155.47256996 137.07304179 158.5 133.75390625 C163.99521348 129.47508117 168.21512907 128.76999319 175 129.3984375 C180.27322153 131.22378341 182.79691086 134.00562953 186 138.3984375 C187.07045136 141.60979157 187.11820157 143.89640441 187.11010742 147.27172852 C187.11097603 149.08490318 187.11097603 149.08490318 187.11186218 150.93470764 C187.10975235 152.24402756 187.10764252 153.55334747 187.10546875 154.90234375 C187.11634846 157.67255022 187.13384996 160.44271284 187.15039062 163.21289062 C187.17464331 167.58192522 187.19050596 171.95048781 187.17504883 176.31958008 C187.16330395 179.85723558 187.18100687 183.39372266 187.21749306 186.93119621 C187.23016532 188.91728715 187.21216071 190.90349882 187.19340515 192.88954163 C187.3075027 201.48426916 189.09764914 206.44564127 194 213.3984375 C199.1806228 223.16568872 201.94176692 233.57213151 204 244.3984375 C205.31441913 242.4268088 206.58714134 240.42661735 207.8125 238.3984375 C210.79593515 234.30686929 213.18828243 232.72723069 218.1640625 231.82421875 C219.09992188 231.68371094 220.03578125 231.54320312 221 231.3984375 C221.0700753 222.04367594 221.12309914 212.68900725 221.15543652 203.33403873 C221.17097111 198.98830333 221.19198063 194.64274988 221.22631836 190.29711914 C221.25935446 186.08900144 221.27694426 181.88105669 221.28463173 177.67281914 C221.2900971 176.08196738 221.30076433 174.4911231 221.31719017 172.90034676 C221.64705715 139.57269458 209.9691173 107.52333961 188 82.3984375 C187.39285156 81.67011719 186.78570312 80.94179687 186.16015625 80.19140625 C182.14578653 75.43060044 177.82143367 71.33298538 173 67.3984375 C172.06414062 66.625 171.12828125 65.8515625 170.1640625 65.0546875 C144.9767421 44.67896446 114.34500104 35.27144369 82.18237305 35.23730469 C80.47513817 35.22985733 80.47513817 35.22985733 78.7334137 35.22225952 C74.99284239 35.20773688 71.25231355 35.20085065 67.51171875 35.1953125 C66.22319315 35.19248512 64.93466755 35.18965775 63.60709572 35.18674469 C57.48230528 35.17332436 51.35753347 35.16342019 45.23272961 35.1595428 C38.22888176 35.15508133 31.22523094 35.13761076 24.22144288 35.1085422 C18.10257689 35.08405349 11.98379021 35.07658557 5.8648777 35.07486725 C3.28930403 35.07187131 0.71373056 35.06394856 -1.86181068 35.05068207 C-45.2280905 34.84333761 -82.28452713 44.55342115 -113.59765625 76.0078125 Z " fill="#BBC7CE" transform="translate(222,7.6015625)"/>
<path d="M0 0 C17.50512083 10.82190482 43.18493163 10.93074021 62.93359375 7.7578125 C72.31996788 5.51107401 80.7780517 0.91691297 89.23046875 -3.62109375 C100.00620684 -9.31582156 110.18219436 -13.13690274 122.50390625 -9.7109375 C143.16999201 -2.07773955 160.25779857 11.43356589 170.23046875 31.37890625 C177.01658821 46.19203559 178.70123503 60.64742932 178.62890625 76.6796875 C178.63093465 78.29339224 178.6338524 79.90709608 178.63760376 81.52079773 C178.64198485 84.87308638 178.63572988 88.22513249 178.62158203 91.57739258 C178.60442277 95.84831255 178.61440046 100.11866948 178.63229942 104.38956928 C178.64319315 107.71066963 178.63966663 111.03163862 178.63191605 114.35274315 C178.62993305 115.92702491 178.63230548 117.50131909 178.63935471 119.07558632 C178.686913 132.66465717 177.19192804 143.80649564 167.6015625 154.1328125 C159.83247974 161.32507241 151.01158227 163.53224611 140.69247437 163.51261902 C139.387111 163.51601735 139.387111 163.51601735 138.05537665 163.51948434 C135.13374679 163.52582401 132.21216333 163.52499498 129.29052734 163.52416992 C127.19781433 163.52716151 125.10510187 163.53056404 123.01239014 163.53434753 C117.32205145 163.54319373 111.63172779 163.54552597 105.94138288 163.54616332 C101.19017554 163.54711247 96.43897171 163.55079102 91.68776572 163.55433542 C80.47429644 163.56248304 69.26083518 163.56491945 58.04736328 163.56420898 C46.48676553 163.56360874 34.92621453 163.57414931 23.3656286 163.58995265 C13.43765842 163.60303976 3.5097035 163.60839236 -6.41827524 163.60775357 C-12.34638827 163.60749885 -18.27445981 163.61033597 -24.20256424 163.62093163 C-29.78230854 163.63063176 -35.36197186 163.63067861 -40.94171906 163.62341499 C-42.98547102 163.6223714 -45.02922808 163.62471865 -47.07297134 163.63077545 C-49.87195352 163.63853056 -52.6706585 163.63382731 -55.46963501 163.62614441 C-56.27044105 163.63128797 -57.07124709 163.63643154 -57.89631999 163.64173096 C-69.68464629 163.5706695 -77.90288219 160.78876106 -86.58984375 152.6796875 C-93.62099294 145.10088599 -95.86809311 136.31574371 -95.9465332 126.19628906 C-95.9531044 125.49134811 -95.9596756 124.78640717 -95.96644592 124.06010437 C-95.98609923 121.73407864 -95.99783153 119.40811765 -96.0078125 117.08203125 C-96.01188803 116.28039299 -96.01596355 115.47875473 -96.02016258 114.6528244 C-96.04100212 110.39924888 -96.05530587 106.1457053 -96.06469727 101.89208984 C-96.07568138 97.54530312 -96.10999309 93.19903971 -96.14986897 88.85243607 C-96.17631462 85.47187503 -96.18441411 82.0914326 -96.18797874 78.71077728 C-96.19278301 77.11154446 -96.20421531 75.51231463 -96.22301674 73.91318512 C-96.4978115 48.96485614 -88.86813392 27.35656075 -71.51953125 8.9765625 C-49.67657852 -11.65634029 -25.60146768 -15.99569677 0 0 Z " fill="#0A365E" transform="translate(214.76953125,220.62109375)"/>
<path d="M0 0 C4.46876455 3.07848225 8.07974831 6.73924494 9.8125 11.9375 C9.96395099 14.2200699 10.06136979 16.50637706 10.12890625 18.79296875 C10.14968735 19.45460526 10.17046844 20.11624176 10.19187927 20.79792786 C10.25714727 22.90684852 10.31615344 25.01589135 10.375 27.125 C10.41820689 28.55665315 10.46182188 29.98829404 10.50585938 31.41992188 C10.61280506 34.92565154 10.71413641 38.43151786 10.8125 41.9375 C11.86308594 41.52757812 12.91367188 41.11765625 13.99609375 40.6953125 C29.86837308 34.57225587 44.01357417 32.78598778 61.03393555 32.79223633 C62.66769995 32.78923996 64.30146365 32.78583633 65.93522644 32.78205872 C70.3528518 32.77326215 74.77045776 32.77088241 79.18809104 32.77024293 C81.95467372 32.76952984 84.72125155 32.76739062 87.48783302 32.76474571 C97.15847713 32.75550595 106.82910749 32.75140902 116.49975586 32.75219727 C125.48319904 32.75279736 134.46658204 32.74225537 143.45001 32.7264536 C151.18792872 32.71333264 158.92582788 32.70801529 166.66375762 32.70865268 C171.27401049 32.70890637 175.88420984 32.7061269 180.49445152 32.69547462 C184.83573112 32.68571687 189.1769069 32.68576647 193.51819038 32.69299126 C195.10068795 32.6940277 196.68319225 32.69173098 198.26567841 32.6856308 C211.41367982 32.63827905 224.10071807 33.49137995 236.5625 38 C237.34109375 38.26876953 238.1196875 38.53753906 238.921875 38.81445312 C244.33473214 40.69861607 244.33473214 40.69861607 246.8125 41.9375 C246.82708252 41.06013184 246.84166504 40.18276367 246.85668945 39.27880859 C246.9179968 36.00200679 246.99219333 32.72601056 247.07495117 29.44970703 C247.10806291 28.0357551 247.13613716 26.62167536 247.15893555 25.20751953 C247.19273775 23.16644177 247.24505964 21.12652072 247.30078125 19.0859375 C247.32696533 17.86052246 247.35314941 16.63510742 247.38012695 15.37255859 C248.05910512 9.97830514 250.10247508 6.05026151 254.3125 2.625 C254.9003125 2.13386719 255.488125 1.64273438 256.09375 1.13671875 C260.25712582 -1.76818211 264.95213387 -1.50511066 269.8125 -1.0625 C275.25439799 0.751466 278.5908325 4.32012638 281.8125 8.9375 C282.88295136 12.14885407 282.93070157 14.43546691 282.92260742 17.81079102 C282.92347603 19.62396568 282.92347603 19.62396568 282.92436218 21.47377014 C282.92225235 22.78309006 282.92014252 24.09240997 282.91796875 25.44140625 C282.92884846 28.21161272 282.94634996 30.98177534 282.96289062 33.75195312 C282.98714331 38.12098772 283.00300596 42.48955031 282.98754883 46.85864258 C282.97580395 50.39629808 282.99350687 53.93278516 283.02999306 57.47025871 C283.04266532 59.45634965 283.02466071 61.44256132 283.00590515 63.42860413 C283.1200027 72.02333166 284.91014914 76.98470377 289.8125 83.9375 C297.13158151 97.73398307 299.95652239 112.4152964 299.97363281 127.91479492 C299.97859772 128.99869507 299.98356262 130.08259521 299.98867798 131.19934082 C300.00323893 134.77222335 300.0100917 138.34506147 300.015625 141.91796875 C300.02138168 144.41270447 300.02713935 146.90744019 300.03289795 149.4021759 C300.04339086 154.62985438 300.04924463 159.85751756 300.05273438 165.08520508 C300.05742769 171.7617322 300.08223737 178.43802577 300.11070633 185.11449718 C300.12939221 190.267996 300.13454149 195.42144615 300.13607025 200.57497597 C300.13908414 203.03518096 300.14706961 205.49538536 300.16025543 207.95555687 C300.17743941 211.40827065 300.1754054 214.86049245 300.16894531 218.31323242 C300.1781601 219.31572525 300.18737488 220.31821808 300.1968689 221.35108948 C300.10365528 237.37186432 294.30237473 252.2251293 283.12890625 263.7578125 C268.98398208 277.06787605 253.3734098 282.10560203 234.19952393 282.07121277 C232.79314545 282.0746111 232.79314545 282.0746111 231.35835528 282.07807809 C228.23270592 282.08438229 225.10710031 282.08359103 221.98144531 282.08276367 C219.73375391 282.0857574 217.48606302 282.08916043 215.2383728 282.09294128 C209.14319112 282.10176388 203.04802349 282.10411867 196.95283604 282.10475707 C193.1415168 282.10546858 189.33020111 282.10760483 185.51888275 282.11025429 C172.89930169 282.11902517 160.27973086 282.12367472 147.66014758 282.12292381 C146.9808145 282.12288386 146.30148143 282.1228439 145.6015625 282.12280273 C144.92139284 282.12276185 144.24122318 282.12272097 143.54044232 282.12267885 C132.52361539 282.12227262 121.50682268 282.13183817 110.49000564 282.1459411 C99.15792654 282.16033227 87.82586929 282.16702697 76.49377894 282.16634732 C70.13977065 282.1660928 63.78580109 282.16891885 57.43180084 282.17952538 C51.45310199 282.18923322 45.4744787 282.1892671 39.49577713 282.18200874 C37.30773177 282.18096623 35.11968164 282.1833059 32.93164444 282.1893692 C12.14119908 282.24322749 -5.56611895 280.8233873 -22.1875 266.9375 C-22.90679687 266.34324219 -23.62609375 265.74898438 -24.3671875 265.13671875 C-34.41816321 256.00480113 -40.83347415 242.36298322 -42.1875 228.9375 C-42.33744086 225.33011371 -42.34458493 221.72564354 -42.34863281 218.11547852 C-42.35359772 217.04775711 -42.35856262 215.98003571 -42.36367798 214.87995911 C-42.37824245 211.35876816 -42.38509372 207.83762233 -42.390625 204.31640625 C-42.39345238 203.10714918 -42.39627975 201.89789211 -42.39919281 200.65199089 C-42.41416604 194.24691424 -42.42340603 187.84185999 -42.42773438 181.43676758 C-42.43320204 174.85704607 -42.45719956 168.27753326 -42.48570633 161.69787693 C-42.5044417 156.60769578 -42.50954419 151.51756369 -42.51107025 146.427351 C-42.51407506 144.00394493 -42.52202905 141.58053927 -42.53525543 139.15716743 C-42.65640501 115.24417191 -39.4127547 95.83874191 -27.1875 74.9375 C-26.6925 74.4425 -26.6925 74.4425 -26.1875 73.9375 C-26.07968432 72.03659022 -26.04122465 70.1317137 -26.02978516 68.2277832 C-26.01952301 67.00593826 -26.00926086 65.78409332 -25.99868774 64.52522278 C-25.99524982 63.86779398 -25.9918119 63.21036518 -25.98826981 62.5330143 C-25.9764984 60.47708559 -25.95704754 58.42136863 -25.93515015 56.36552429 C-25.87349577 50.51857612 -25.81959702 44.67164553 -25.78613281 38.82446289 C-25.76512567 35.25047954 -25.7297669 31.67687534 -25.68537521 28.10310936 C-25.67125378 26.74327259 -25.6625015 25.38336866 -25.65932083 24.0234623 C-25.65438397 22.11362205 -25.62956663 20.203865 -25.60400391 18.29418945 C-25.59591705 17.20910599 -25.5878302 16.12402252 -25.57949829 15.00605774 C-24.91392222 9.79593652 -22.74014701 5.92221939 -18.6875 2.625 C-18.0996875 2.13386719 -17.511875 1.64273438 -16.90625 1.13671875 C-11.97162911 -2.30630083 -5.46614795 -1.82204932 0 0 Z M39.8125 76.9375 C38.76191406 77.43507813 37.71132812 77.93265625 36.62890625 78.4453125 C18.09134386 87.83418391 3.95478867 103.0755556 -3.5625 122.5 C-7.45080535 134.96252889 -8.6432898 146.41827453 -8.5859375 159.359375 C-8.58796521 160.99692921 -8.5908824 162.63448253 -8.59463501 164.27203369 C-8.59902065 167.67737562 -8.5927469 171.08247908 -8.57861328 174.48779297 C-8.56146865 178.82712002 -8.57141967 183.16589234 -8.58933067 187.50519943 C-8.60022446 190.87691351 -8.5966976 194.24849818 -8.5889473 197.62021637 C-8.58696355 199.2196179 -8.58933944 200.81903165 -8.59638596 202.41841888 C-8.64324717 216.03010698 -7.27549135 227.41283306 2.4765625 237.69140625 C11.22314467 245.65918316 20.18222043 247.08731064 31.70452881 247.08467102 C32.57662876 247.08834771 33.44872872 247.0920244 34.34725595 247.0958125 C37.25722619 247.1067885 40.16716065 247.11068275 43.07714844 247.11450195 C45.16868196 247.12077107 47.26021439 247.12741827 49.35174561 247.13441467 C56.2084476 247.15539965 63.06514967 247.16581013 69.921875 247.17578125 C72.28633892 247.17983053 74.65080273 247.18394751 77.01526642 247.18813133 C88.12273307 247.20716878 99.23019313 247.22140427 110.33767295 247.2297433 C123.14470551 247.23951822 135.95156535 247.26585064 148.75853705 247.30624419 C158.66874834 247.33642553 168.57891015 247.351214 178.4891665 247.35452431 C184.40335533 247.35687194 190.31735933 247.3657958 196.23149872 247.39098549 C201.79657583 247.41430719 207.36134691 247.41848282 212.92646027 247.40822411 C214.96335367 247.40772968 217.00026237 247.41402242 219.03710938 247.42778015 C232.92336991 247.51629134 245.19092112 247.06992722 255.8125 236.9375 C263.08965734 228.81685397 265.91464176 220.68573924 265.97363281 209.81494141 C265.97859772 209.11654144 265.98356262 208.41814148 265.98867798 207.69857788 C266.00323909 205.39539586 266.01009522 203.09228295 266.015625 200.7890625 C266.01845238 199.9959605 266.02127975 199.20285851 266.02419281 198.38572311 C266.03916914 194.17983419 266.04840554 189.97397935 266.05273438 185.76806641 C266.05818412 181.46377545 266.08214177 177.15980644 266.11070633 172.85561562 C266.1295232 169.51288002 266.13454854 166.17021858 266.13607025 162.82743454 C266.13905996 161.24331295 266.14696054 159.65919146 266.16025543 158.07512283 C266.35770886 132.71684184 259.27107989 111.29653281 241.5625 92.53515625 C230.04857559 81.65907709 214.28180906 72.43771861 198.14453125 72.671875 C188.18302307 73.46599289 180.08206699 77.69285856 171.62963867 82.64257812 C166.23181611 85.78493566 160.85299573 88.26488067 154.8125 89.9375 C154.21614746 90.11192627 153.61979492 90.28635254 153.00537109 90.46606445 C145.831056 92.34084775 138.68950426 92.28320897 131.3125 92.25 C130.31388947 92.24577026 130.31388947 92.24577026 129.29510498 92.24145508 C112.54258596 92.13477357 99.29371226 90.0963781 84.54736328 81.89794922 C80.70651452 79.77159135 76.7666302 77.84240944 72.8125 75.9375 C72.18859375 75.6178125 71.5646875 75.298125 70.921875 74.96875 C60.8359231 70.39193149 49.47066728 72.34613496 39.8125 76.9375 Z " fill="#DBE3E9" transform="translate(127.1875,137.0625)"/>
<path d="M0 0 C5.61798031 7.09711039 6.54118647 13.43936414 6.53271484 22.2824707 C6.53943207 23.29301514 6.54614929 24.30355957 6.55307007 25.34472656 C6.57203187 28.67778472 6.57597341 32.0106413 6.578125 35.34375 C6.5845543 37.6677407 6.59128276 39.99173059 6.59829712 42.3157196 C6.61026543 47.18535234 6.61397841 52.05491415 6.61279297 56.92456055 C6.61258984 63.15198174 6.63988862 69.3789463 6.67433739 75.60625935 C6.69661947 80.4062253 6.70063009 85.20608161 6.69957352 90.00609398 C6.70192762 92.30131796 6.71074032 94.59654505 6.72623825 96.89171791 C6.7459235 100.10822782 6.74004954 103.3237561 6.72802734 106.5402832 C6.73926636 107.480327 6.75050537 108.42037079 6.76208496 109.38890076 C6.68808757 117.2145907 4.36824589 122.85385004 0.1171875 129.35546875 C-5.91378678 135.12422676 -11.48446721 137.24248883 -19.7578125 137.10546875 C-19.74893005 138.14814911 -19.74004761 139.19082947 -19.730896 140.2651062 C-19.64958659 150.12174646 -19.58974013 159.9783181 -19.55056381 169.83521843 C-19.52974529 174.90200727 -19.501533 179.96852398 -19.45605469 185.03515625 C-19.41239166 189.93053972 -19.38863231 194.82566247 -19.37830353 199.72122574 C-19.37094874 201.58303045 -19.35658697 203.44482191 -19.33489227 205.30651474 C-19.17738959 219.39053785 -20.12606227 229.25026486 -30.2421875 239.90234375 C-35.69032126 244.67369071 -42.65929665 248.23474122 -49.9908905 248.22572327 C-51.28444206 248.22778526 -51.28444206 248.22778526 -52.60412598 248.22988892 C-53.54711548 248.22629364 -54.49010498 248.22269836 -55.46166992 248.21899414 C-56.95462334 248.21921318 -56.95462334 248.21921318 -58.47773743 248.21943665 C-61.77294075 248.21873907 -65.06808779 248.21095386 -68.36328125 248.203125 C-70.64585845 248.20126027 -72.92843605 248.19983663 -75.21101379 248.19883728 C-81.22306419 248.19501642 -87.23509048 248.18518979 -93.24713135 248.1741333 C-99.38024571 248.16390993 -105.51336395 248.15933767 -111.64648438 248.15429688 C-123.68360435 248.14356716 -135.72070642 248.12649589 -147.7578125 248.10546875 C-147.8196875 249.03359375 -147.8815625 249.96171875 -147.9453125 250.91796875 C-148.7578125 254.10546875 -148.7578125 254.10546875 -150.85871887 255.95521545 C-154.45082445 257.3804303 -157.27662067 257.49355984 -161.14331055 257.50952148 C-161.86924911 257.51638474 -162.59518768 257.52324799 -163.34312439 257.53031921 C-165.73546095 257.54857072 -168.12714018 257.54475013 -170.51953125 257.5390625 C-172.19236971 257.54362719 -173.86520629 257.54893362 -175.53804016 257.5549469 C-179.04423639 257.56387633 -182.55020487 257.5614593 -186.05639648 257.55151367 C-190.52724751 257.54006165 -194.99730425 257.56017786 -199.46805096 257.58943081 C-202.92471739 257.60787706 -206.3811968 257.60748304 -209.83790016 257.60179329 C-211.48476076 257.6016409 -213.1316347 257.60761644 -214.7784481 257.62008476 C-225.58252008 257.69032476 -235.08540069 257.37990764 -243.6328125 249.98046875 C-249.35093665 243.62699748 -251.49094389 236.23459035 -251.14453125 227.77734375 C-250.12842917 220.75700213 -246.71293788 215.06059413 -241.7578125 210.10546875 C-235.65618453 205.81783828 -230.52417431 204.95658311 -223.22290039 204.91259766 C-222.46956924 204.90442017 -221.7162381 204.89624268 -220.94007874 204.88781738 C-218.45355004 204.86305582 -215.9670779 204.84647466 -213.48046875 204.83203125 C-212.20452252 204.82404573 -212.20452252 204.82404573 -210.90279961 204.8158989 C-206.40371478 204.7892125 -201.90465732 204.76981986 -197.40551758 204.75537109 C-193.683589 204.74201187 -189.96220609 204.71411696 -186.24047852 204.67333984 C-181.74245346 204.6240625 -177.24492462 204.59925702 -172.74664116 204.59214401 C-171.03420019 204.58542834 -169.32177044 204.57019795 -167.60948372 204.5462532 C-165.21310675 204.5146431 -162.81864973 204.51455716 -160.42211914 204.52197266 C-159.71702209 204.50556732 -159.01192505 204.48916199 -158.28546143 204.47225952 C-154.43674848 204.52095987 -152.84028381 205.04043979 -149.77879333 207.45443726 C-147.7578125 210.10546875 -147.7578125 210.10546875 -147.7578125 213.10546875 C-136.35292406 213.06744895 -124.94836483 213.00814141 -113.5437355 212.92156601 C-108.24821981 212.88203728 -102.95287175 212.84987528 -97.65722656 212.83447266 C-92.54770856 212.81934162 -87.43865126 212.78495937 -82.32933807 212.73715973 C-80.37892407 212.72230921 -78.4284443 212.71442564 -76.47797394 212.7135849 C-73.74816119 212.71122451 -71.01963127 212.68422049 -68.29003906 212.65136719 C-67.48155518 212.65639755 -66.67307129 212.66142792 -65.84008789 212.66661072 C-62.43373421 212.60307788 -60.15662747 212.36054047 -57.25866699 210.50708008 C-55.22620701 207.2548135 -55.23906327 204.96182777 -55.21191406 201.13378906 C-55.19640755 200.09415764 -55.19640755 200.09415764 -55.18058777 199.03352356 C-55.15116554 196.74997632 -55.14966082 194.46731562 -55.1484375 192.18359375 C-55.13345533 190.59745595 -55.1167281 189.01133376 -55.09832764 187.42523193 C-55.05464543 183.25611656 -55.03465329 179.08721163 -55.01959229 174.91790771 C-55.0000242 170.66129102 -54.95805391 166.40490169 -54.91796875 162.1484375 C-54.8426573 153.80084073 -54.79237172 145.45333323 -54.7578125 137.10546875 C-56.02109375 136.97269531 -57.284375 136.83992187 -58.5859375 136.703125 C-62.75975292 136.26444848 -64.83679994 135.26989903 -67.7578125 132.10546875 C-72.07508051 125.78302384 -72.33190834 119.87897059 -72.27539062 112.40039062 C-72.2823999 111.25139786 -72.28940918 110.10240509 -72.29663086 108.91859436 C-72.31417375 105.13688684 -72.30260034 101.35593331 -72.2890625 97.57421875 C-72.29175845 94.93680681 -72.29564174 92.29939585 -72.30065918 89.6619873 C-72.30791939 84.14094948 -72.29839095 78.62012627 -72.27929688 73.09912109 C-72.25753098 66.73237708 -72.26458352 60.36614558 -72.2866025 53.99941397 C-72.30699943 47.85375312 -72.30476719 41.708318 -72.29307556 35.56263733 C-72.29041187 32.95679146 -72.29366538 30.35093246 -72.30299377 27.74510193 C-72.31317995 24.09990046 -72.29762725 20.45567581 -72.27539062 16.81054688 C-72.28348755 15.73913956 -72.29158447 14.66773224 -72.29992676 13.56385803 C-72.22074019 6.53827702 -71.26267196 0.64064168 -66.15302563 -4.5131979 C-61.64324452 -8.35638031 -57.19454248 -8.6556761 -51.45703125 -8.671875 C-50.14240654 -8.70167198 -50.14240654 -8.70167198 -48.80122375 -8.73207092 C-46.95499735 -8.76909419 -45.10850467 -8.7944811 -43.26196289 -8.80883789 C-40.4631948 -8.831884 -37.66717413 -8.89228835 -34.86914062 -8.95898438 C-33.06514143 -8.99049252 -31.2611033 -9.0198585 -29.45703125 -9.046875 C-28.63377853 -9.06338608 -27.81052582 -9.07989716 -26.96232605 -9.09690857 C-16.81260511 -9.14824067 -7.18029112 -7.7387582 0 0 Z " fill="#BCC6CD" transform="translate(497.7578125,246.89453125)"/>
<path d="M0 0 C1.9344373 0.02682879 3.86908843 0.04117668 5.80371094 0.04296875 C8.61837753 0.04607888 11.43020582 0.08790536 14.24438477 0.13793945 C15.09983383 0.13198257 15.9552829 0.1260257 16.83665466 0.11988831 C22.344497 0.27343698 25.80215779 1.61275532 30.2658844 4.81590271 C35.46493277 11.42300822 35.40562305 19.56572771 35.37109375 27.61279297 C35.377957 28.74242462 35.38482025 29.87205627 35.39189148 31.03591919 C35.41010173 34.74713932 35.4063308 38.4579345 35.40063477 42.16918945 C35.40519855 44.76033159 35.41050471 47.35147252 35.41651917 49.94261169 C35.42543838 55.36348993 35.42327528 60.7842065 35.41308594 66.20507812 C35.40159657 72.45538211 35.4157037 78.7052574 35.44248241 84.95550495 C35.46736719 90.99169598 35.46980844 97.02766746 35.46336555 103.06391716 C35.4632124 105.62232108 35.46925182 108.18073328 35.48165703 110.73910713 C35.49656608 114.31711719 35.48588993 117.89418695 35.46875 121.47216797 C35.47841797 122.52330276 35.48808594 123.57443756 35.49804688 124.65742493 C35.43526429 130.92951165 34.61412712 135.76354874 30.96704102 140.9777832 C26.9947956 144.75626055 23.89427256 146.08326291 18.47070312 146.1706543 C17.56223129 146.18671722 16.65375946 146.20278015 15.71775818 146.21932983 C11.5483388 146.26404888 7.37907642 146.30488044 3.20947266 146.32788086 C1.018609 146.34438881 -1.17220195 146.37160991 -3.36279297 146.40991211 C-6.53568221 146.46505943 -9.70730935 146.48661699 -12.88061523 146.5012207 C-13.84765884 146.52389008 -14.81470245 146.54655945 -15.81105042 146.56991577 C-23.54944432 146.54621472 -30.10937361 144.50712288 -35.95228577 139.25131226 C-42.47658833 132.43540134 -43.4803269 124.60814374 -43.43701172 115.57373047 C-43.44387497 114.56289398 -43.45073822 113.5520575 -43.45780945 112.5105896 C-43.47602451 109.188311 -43.47224745 105.866507 -43.46655273 102.54418945 C-43.47111698 100.22305651 -43.47642327 97.90192492 -43.48243713 95.58079529 C-43.49135781 90.72307841 -43.48895678 85.86552602 -43.47900391 81.0078125 C-43.46751432 74.79611671 -43.48773151 68.5849894 -43.51692104 62.37336826 C-43.5353047 57.5819694 -43.53498623 52.79070623 -43.52928352 47.99928093 C-43.52913058 45.70964701 -43.53515226 43.42000374 -43.547575 41.13040352 C-43.56252407 37.92365408 -43.55177842 34.71794822 -43.53466797 31.51123047 C-43.54433594 30.57432877 -43.55400391 29.63742706 -43.56396484 28.6721344 C-43.46740119 19.98902028 -40.6422313 12.89789371 -34.73217773 6.48168945 C-25.17810681 -1.9742124 -11.87325135 -0.19636028 0 0 Z " fill="#2372FE" transform="translate(51.032958984375,238.022216796875)"/>
<path d="M0 0 C5.61798031 7.09711039 6.54118647 13.43936414 6.53271484 22.2824707 C6.53943207 23.29301514 6.54614929 24.30355957 6.55307007 25.34472656 C6.57203187 28.67778472 6.57597341 32.0106413 6.578125 35.34375 C6.5845543 37.6677407 6.59128276 39.99173059 6.59829712 42.3157196 C6.61026543 47.18535234 6.61397841 52.05491415 6.61279297 56.92456055 C6.61258984 63.15198174 6.63988862 69.3789463 6.67433739 75.60625935 C6.69661947 80.4062253 6.70063009 85.20608161 6.69957352 90.00609398 C6.70192762 92.30131796 6.71074032 94.59654505 6.72623825 96.89171791 C6.7459235 100.10822782 6.74004954 103.3237561 6.72802734 106.5402832 C6.73926636 107.480327 6.75050537 108.42037079 6.76208496 109.38890076 C6.68808757 117.2145907 4.36824589 122.85385004 0.1171875 129.35546875 C-6.88443283 136.0526708 -14.30982133 137.86577303 -23.76953125 137.734375 C-25.28822563 137.73799294 -25.28822563 137.73799294 -26.83760071 137.74168396 C-28.96119129 137.74071115 -31.08480904 137.72745415 -33.20825195 137.70239258 C-36.4476555 137.66794383 -39.68434656 137.68180021 -42.92382812 137.70117188 C-44.99740736 137.69427599 -47.07097963 137.68460595 -49.14453125 137.671875 C-50.10509933 137.67683487 -51.06566742 137.68179474 -52.05534363 137.68690491 C-58.14159579 137.58077505 -61.78184663 136.67333436 -66.7578125 133.10546875 C-72.74022301 126.02103525 -71.91199608 117.68630448 -71.93481445 108.88110352 C-71.94138565 107.77127106 -71.94795685 106.6614386 -71.95472717 105.51797485 C-71.97437022 101.8609408 -71.98609984 98.20394754 -71.99609375 94.546875 C-72.00220704 92.66836507 -72.00220704 92.66836507 -72.00844383 90.75190544 C-72.02712042 84.81027646 -72.04169851 78.86866033 -72.0500558 72.92700917 C-72.05983474 66.08990239 -72.08618804 59.25311877 -72.12655669 52.41612583 C-72.16042212 46.47503992 -72.17220575 40.53403275 -72.17625999 34.59284782 C-72.18112732 32.07350401 -72.19274538 29.5541637 -72.21129799 27.0348835 C-72.23565677 23.50940288 -72.23473035 19.9847676 -72.2277832 16.45922852 C-72.24059326 15.42365311 -72.25340332 14.3880777 -72.26660156 13.32112122 C-72.21686411 6.38384655 -71.19060638 0.57048684 -66.15283966 -4.51457024 C-61.64159483 -8.35549811 -57.19470298 -8.65567565 -51.45703125 -8.671875 C-50.14240654 -8.70167198 -50.14240654 -8.70167198 -48.80122375 -8.73207092 C-46.95499735 -8.76909419 -45.10850467 -8.7944811 -43.26196289 -8.80883789 C-40.4631948 -8.831884 -37.66717413 -8.89228835 -34.86914062 -8.95898438 C-33.06514143 -8.99049252 -31.2611033 -9.0198585 -29.45703125 -9.046875 C-28.63377853 -9.06338608 -27.81052582 -9.07989716 -26.96232605 -9.09690857 C-16.81260511 -9.14824067 -7.18029112 -7.7387582 0 0 Z " fill="#2372FE" transform="translate(497.7578125,246.89453125)"/>
<path d="M0 0 C0.75333115 -0.00817749 1.50666229 -0.01635498 2.28282166 -0.02478027 C4.76935036 -0.04954183 7.25582249 -0.06612299 9.74243164 -0.08056641 C11.01837787 -0.08855192 11.01837787 -0.08855192 12.32010078 -0.09669876 C16.81918561 -0.12338515 21.31824307 -0.1427778 25.81738281 -0.15722656 C29.53931139 -0.17058579 33.2606943 -0.19848069 36.98242188 -0.23925781 C41.48044693 -0.28853515 45.97797577 -0.31334063 50.47625923 -0.32045364 C52.1887002 -0.32716931 53.90112995 -0.34239971 55.61341667 -0.36634445 C58.00979365 -0.39795456 60.40425066 -0.39804049 62.80078125 -0.390625 C63.85842682 -0.415233 63.85842682 -0.415233 64.93743896 -0.44033813 C68.71877936 -0.3924903 70.37600891 0.12428768 73.40565491 2.4568634 C75.47195168 5.20198981 76.0898195 6.21041666 76.08032227 9.55249023 C76.0942804 10.79386497 76.0942804 10.79386497 76.10852051 12.06031799 C76.09212524 12.94066208 76.07572998 13.82100616 76.05883789 14.72802734 C76.05887817 15.6436998 76.05891846 16.55937225 76.05895996 17.50279236 C76.05361088 19.43349086 76.03605431 21.36418925 76.00708008 23.29467773 C75.96517756 26.24904898 75.96601718 29.20114301 75.97290039 32.15576172 C75.96240899 34.03403276 75.94947115 35.91229206 75.93383789 37.79052734 C75.93353577 39.11407982 75.93353577 39.11407982 75.93322754 40.46437073 C75.81611455 46.53226907 75.81611455 46.53226907 74.12329102 49.71801758 C70.63478944 52.82079114 66.74773962 52.33658375 62.30664062 52.36987305 C61.58099411 52.37644424 60.8553476 52.38301544 60.10771179 52.38978577 C57.70470062 52.40950285 55.30175209 52.42118131 52.89868164 52.43115234 C51.66381862 52.43726563 51.66381862 52.43726563 50.40400887 52.44350243 C46.04180274 52.46436209 41.67962801 52.47866103 37.31738281 52.48803711 C32.83085416 52.49906699 28.34482621 52.53342713 23.85847378 52.57320881 C20.39326617 52.59947671 16.92817566 52.6077382 13.46287727 52.61131859 C11.81041161 52.61616281 10.15795041 52.62771445 8.50558281 52.64635658 C-2.33493483 52.76100173 -11.82832506 52.49442684 -20.40991211 45.06787109 C-26.12803626 38.71439982 -28.2680435 31.3219927 -27.92163086 22.86474609 C-26.90552878 15.84440448 -23.49003749 10.14799647 -18.53491211 5.19287109 C-12.43328414 0.90524063 -7.30127392 0.04398546 0 0 Z " fill="#0A365E" transform="translate(274.534912109375,451.80712890625)"/>
<path d="M0 0 C4.46876455 3.07848225 8.07974831 6.73924494 9.8125 11.9375 C12.67746863 38.69526523 12.67746863 38.69526523 8.57910156 46.19433594 C5.00512284 49.7860846 0.46546708 51.16750936 -4.1875 52.9375 C-7.04910974 55.11147538 -7.04910974 55.11147538 -9.4375 57.5 C-13.00231481 60.9375 -13.00231481 60.9375 -15.1875 60.9375 C-15.44402344 61.50984375 -15.70054688 62.0821875 -15.96484375 62.671875 C-17.30972533 65.16398783 -18.87263118 67.07105081 -20.75 69.1875 C-21.37003906 69.89390625 -21.99007812 70.6003125 -22.62890625 71.328125 C-23.40041016 72.12476563 -23.40041016 72.12476563 -24.1875 72.9375 C-24.5175 72.9375 -24.8475 72.9375 -25.1875 72.9375 C-25.2571423 65.0877649 -25.31038325 57.23810277 -25.34293652 49.38813591 C-25.35856391 45.7426954 -25.37974805 42.09746693 -25.41381836 38.45214844 C-25.44651717 34.93136651 -25.46437501 31.41078799 -25.47213173 27.88986588 C-25.48033732 25.89907365 -25.50373998 23.90836275 -25.52738953 21.91769409 C-25.52761612 20.69688141 -25.52784271 19.47606873 -25.52807617 18.21826172 C-25.53473801 17.14792694 -25.54139984 16.07759216 -25.54826355 14.974823 C-24.93025349 9.77170268 -22.72509213 5.90997079 -18.6875 2.625 C-18.0996875 2.13386719 -17.511875 1.64273438 -16.90625 1.13671875 C-11.97162911 -2.30630083 -5.46614795 -1.82204932 0 0 Z " fill="#BCC7CE" transform="translate(127.1875,137.0625)"/>
<path d="M0 0 C4.46876455 3.07848225 8.07974831 6.73924494 9.8125 11.9375 C9.90138831 13.91592761 9.93010873 15.89726634 9.92602539 17.87768555 C9.92594986 19.09872482 9.92587433 20.3197641 9.92579651 21.57780457 C9.92063522 22.89662125 9.91547394 24.21543793 9.91015625 25.57421875 C9.9082908 26.93756559 9.9068675 28.30091311 9.90586853 29.66426086 C9.90205332 33.24978491 9.89223155 36.83526835 9.88116455 40.42077637 C9.87092901 44.0806422 9.86636632 47.7405146 9.86132812 51.40039062 C9.85060838 58.57944558 9.83354393 65.7584671 9.8125 72.9375 C7.12701337 70.27213141 4.51995138 67.66701853 2.1875 64.6875 C-2.73447877 58.91388114 -8.72369983 53.60239019 -15.57592773 50.30883789 C-19.46132695 48.43589186 -22.05899359 46.92245372 -25.1875 43.9375 C-26.87659372 38.48259492 -26.56407942 33.45234541 -26.1875 27.8125 C-26.14794091 26.3582169 -26.11404158 24.9037683 -26.0859375 23.44921875 C-25.64913798 9.69023026 -25.64913798 9.69023026 -20.46875 4.07421875 C-19.8809375 3.59597656 -19.293125 3.11773437 -18.6875 2.625 C-18.0996875 2.13386719 -17.511875 1.64273438 -16.90625 1.13671875 C-11.97162911 -2.30630083 -5.46614795 -1.82204932 0 0 Z " fill="#BCC7CE" transform="translate(400.1875,137.0625)"/>
<path d="M0 0 C6.48443948 3.65557046 10.71560743 10.5103581 12.8125 17.5 C13.97008281 26.33621544 12.34371889 33.82304769 7.8125 41.5 C3.93994718 46.05179329 -0.45486394 49.02694022 -6.4375 49.78515625 C-13.02141789 50.1765782 -17.1475515 48.71949177 -22.1875 44.5 C-27.6940014 39.14645698 -30.38672982 31.58370533 -30.6875 24 C-30.38396902 16.34668311 -27.65566987 8.96816987 -22.1875 3.5 C-15.24401049 -1.60133923 -8.17533746 -3.56884924 0 0 Z " fill="#0FDAFC" transform="translate(337.1875,274.5)"/>
<path d="M0 0 C6.39784305 3.46467808 9.19644826 8.55280091 12.25 14.9375 C14.17133623 24.54418116 12.83305288 32.55055457 7.875 41.0625 C4.0082853 45.61623918 -0.39615734 48.58992098 -6.375 49.34765625 C-12.95891789 49.7390782 -17.0850515 48.28199177 -22.125 44.0625 C-27.76618722 38.57801243 -30.32422498 30.92241286 -30.75 23.1875 C-30.45230688 15.48717133 -27.56499769 8.46362766 -22.05078125 3.01171875 C-15.01368941 -2.43845034 -8.22583052 -3.6104324 0 0 Z " fill="#0FDAFC" transform="translate(192.125,274.9375)"/>
<path d="M0 0 C3.9989311 1.30999467 6.14255343 2.95478198 9.14453125 5.8125 C11.47598376 7.97785959 12.62290774 8.18733906 15.875 8.4375 C21.35364718 8.07225685 24.41981555 6.54719528 28.0625 2.4375 C30.625 0.1875 30.625 0.1875 34.1875 0.125 C37.9617893 1.29159851 39.49551297 1.86550024 41.625 5.1875 C42.34259642 10.13094199 42.28935446 12.09452976 39.6875 16.375 C33.65451371 22.66507377 24.94783881 26.19028991 16.375 26.5625 C7.86497284 26.37749941 1.25581853 23.3216793 -5 17.65234375 C-8.1363262 14.31108715 -8.88484813 11.75877116 -8.75 7.19921875 C-8.375 5.1875 -8.375 5.1875 -6.3125 2.125 C-3.375 0.1875 -3.375 0.1875 0 0 Z " fill="#0FD9FB" transform="translate(239.375,323.8125)"/>
</svg>
