<svg viewBox="0 0 850.3937 850.3937" xmlns="http://www.w3.org/2000/svg"><g id="Layer_1"><g><path d="m668.0701 634.11c-10.1801 8.53-21.24 15.74-32.8401 21.16l-12.37 5.03-65.59 26.63c-43.4199 4.08-86.95 6.19-130.47 6.21-10.0801.01-20.16-.1-30.23-.32v-49.24l271.5-9.47z" fill="#9eacba"/><path d="m73.889 405.4913c-3.1741 35.8075-3.174 71.1787 0 106.9847 1.5939 10.4153 8.416 19.9499 16.703 26.2023 12.5096 8.1732 24.7476 15.9738 39.9158 17.919 14.3881-.7673 26.4455-18.647 28.4647-31.9075 4.8896-43.9956 4.8898-87.4146 0-131.4123-2.0192-13.2606-14.0765-31.1402-28.4646-31.9075-15.1682 1.9452-27.4063 9.7457-39.9158 17.9189-8.287 6.2524-15.1091 15.7872-16.703 26.2024z" fill="#36bcff"/><path d="m776.5047 405.4913c3.1741 35.8075 3.174 71.1787 0 106.9847-1.5939 10.4153-8.416 19.9499-16.703 26.2023-12.5096 8.1732-24.7476 15.9738-39.9158 17.919-14.3881-.7673-26.4455-18.647-28.4647-31.9075-4.8896-43.9956-4.8898-87.4146 0-131.4123 2.0192-13.2606 14.0765-31.1402 28.4646-31.9075 15.1682 1.9452 27.4063 9.7457 39.9158 17.9189 8.287 6.2524 15.1091 15.7872 16.703 26.2024z" fill="#307de3"/><path d="m492.62 241.47h-65.15v-26.8101h.8101c5.87 0 11.55.3301 16.95.9401 27.3101 3.1 47.39 13.51 47.39 25.87z" fill="#307de3"/><path d="m445.23 241.47v45.94h-33.8999v-130.21h16.1399v84.27z" fill="#171a3b"/><path d="m492.62 241.47c0 12.3601-20.08 22.77-47.39 25.8701-5.3999.6099-11.08.9399-16.95.9399s-11.55-.3301-16.95-.9399c-27.3101-3.1001-47.3901-13.51-47.3901-25.8701 0-12.37 20.0801-22.77 47.3901-25.87 5.1499-.58 10.5599-.91 16.1399-.9401v26.8101h65.15z" fill="#36bcff"/><path d="m427.47 241.47v435.03h-.6699c-10.0801.01-20.16-.1-30.23-.32-46.8401-1.02-93.66-4.48-140.3-10.55-61.88-8.04-118.77-70.96-127.8201-134.18-6.95-48.53-6.95-96.4 0-144.93 9.05-63.22 65.9401-126.14 127.8201-134.1799 56.6799-7.3701 113.6-10.9001 170.53-10.8701z" fill="#e7e9eb"/><path d="m727.94 531.45c-5.64 37.92-28.67 76.51-59.8699 102.66-10.1801 8.53-21.24 15.74-32.8401 21.16-4.0599 1.9-8.1899 3.58-12.37 5.03-7.4301 2.56-15.0399 4.38-22.74 5.33-57.4 7.09-115.0199 10.81-172.65 10.87v-435.03c57.6201.0601 115.26 3.78 172.65 10.8701 62.28 7.6899 118.55 71.8599 127.82 134.1799 7.17 48.22 7.17 96.72 0 144.93z" fill="#d1d3d4"/><path d="m455.71 312.69-243.1699 243.18c-7.37-11.24-12.3501-23.37-13.9399-34.47-2.9601-20.73-4.4701-41.1801-4.51-61.63l144.4099-144.41c28.99-2.01 58.24-3.02 87.5-3.02 9.86 0 19.77.11 29.71.35z" fill="#061942"/><path d="m657.8501 521.02c-3.02 20.26-16.8701 43.33-35.3 58.77-5.6801 4.77-11.51 8.56-17.3201 11.27-1.84.87-3.6899 1.62-5.51 2.25-2.8899 1-5.6699 1.66-8.27 1.98-55.52 6.86-111.1699 10.34-165.4199 10.34-9.28 0-18.67-.1-27.91-.3-44.6801-.98-89.33-4.33-132.7-9.98-6.9-.9-14.5-3.93-22.05-8.66l271.33-271.33c25.5 1.71 51.1301 4.15 76.74 7.31 27.9301 3.45 61.4501 40.93 66.4102 74.27 6.1199 41.17 6.1199 82.92 0 124.08z" fill="#061942"/><path d="m338.5 315.36-144.4099 144.41c-.04-20.97 1.47-41.94 4.51-63.21 2.3298-16.25 11.9199-34.71 25.6599-49.37 12.85-13.71 28.23-22.9 41.14-24.58 24.08-3.13 48.51-5.55 73.1-7.25z" fill="#152e63"/><path d="m514.7 315.36-271.33 271.33c-6.58-4.12-13.12-9.53-19.11-15.92-4.36-4.65-8.3-9.68-11.72-14.9l243.1699-243.18c19.54.44 39.23 1.33 58.99 2.67z" fill="#152e63"/><path d="m427.47 98.22v78.13c-5.76 0-11.22-1.24-16.1399-3.48-13.53-6.14-22.9301-19.77-22.9301-35.59 0-21.5701 17.49-39.0601 39.0699-39.0601z" fill="#36bcff"/><path d="m557.27 686.93-160.7 65.25v-59.36c10.0699.22 20.1499.33 30.23.32 43.52-.02 87.05-2.13 130.47-6.21z" fill="#d1d3d4"/><path d="m466.53 137.28c0 15.1799-8.66 28.34-21.3 34.8101-5.3199 2.72-11.36 4.2599-17.76 4.2599v-78.13c21.5701 0 39.0601 17.49 39.0601 39.0601z" fill="#307de3"/><path d="m445.23 172.0901v43.5099c-5.3999-.61-11.08-.9401-16.95-.9401h-.8101v-38.3099c6.4 0 12.4401-1.5399 17.76-4.2599z" fill="#01052b"/></g></g><g id="Layer_2"><g fill="#36bcff"><g><path d="m329.2101 514.4326c-13.4199 2.8255-20.3301 2.8256-33.75.0001-9.0387-3.8047-15.9099-13.039-17.953-22.5129-3.472-27.8755-3.472-54.8481 0-82.7237 2.0431-9.4739 8.9143-18.7083 17.953-22.5131 13.4198-2.8254 20.3302-2.8253 33.75.0002 9.0387 3.8047 15.9099 13.039 17.9529 22.5129 3.472 27.8755 3.472 54.8481 0 82.7237-2.0431 9.4739-8.9143 18.7081-17.9529 22.5128z"/><path d="m561.0977 514.4326c-13.4199 2.8255-20.3301 2.8256-33.75.0001-9.0387-3.8047-15.9099-13.039-17.953-22.5129-3.472-27.8755-3.472-54.8481 0-82.7237 2.0431-9.4739 8.9143-18.7083 17.953-22.5131 13.4198-2.8254 20.3302-2.8253 33.75.0002 9.0387 3.8047 15.9099 13.039 17.9529 22.5129 3.472 27.8755 3.472 54.8481 0 82.7237-2.0431 9.4739-8.9143 18.7081-17.9529 22.5128z"/></g><path d="m464.7471 539.7671h-69.0566c-8.2842 0-15-6.7158-15-15s6.7158-15 15-15h69.0566c8.2842 0 15 6.7158 15 15s-6.7158 15-15 15z"/></g></g></svg>