<svg height="512" viewBox="0 0 48 48" width="512" xmlns="http://www.w3.org/2000/svg" xmlns:xlink="http://www.w3.org/1999/xlink"><linearGradient id="linear-gradient" gradientUnits="userSpaceOnUse" x1="24" x2="24" y1="18" y2="9"><stop offset="0" stop-color="#54a5ff"/><stop offset="1" stop-color="#8ad3fe"/></linearGradient><linearGradient id="linear-gradient-2" x1="24" x2="24" xlink:href="#linear-gradient" y1="38" y2="18"/><linearGradient id="linear-gradient-3" gradientUnits="userSpaceOnUse" x1="37" x2="33" y1="4" y2="4"><stop offset="0" stop-color="#fe9661"/><stop offset="1" stop-color="#ffb369"/></linearGradient><linearGradient id="linear-gradient-4" x1="31" x2="40" xlink:href="#linear-gradient-3" y1="42.5" y2="42.5"/><linearGradient id="linear-gradient-5" gradientTransform="matrix(.707 .707 -.707 .707 36.95 -11.2)" x1="29.41" x2="34.59" xlink:href="#linear-gradient-3" y1="39" y2="39"/><linearGradient id="linear-gradient-6" x1="15" x2="35" xlink:href="#linear-gradient-3" y1="32" y2="32"/><linearGradient id="linear-gradient-7" gradientUnits="userSpaceOnUse" x1="17" x2="33" y1="32" y2="32"><stop offset="0" stop-color="#d3e6f5"/><stop offset="1" stop-color="#f0f7fc"/></linearGradient><g id="Empty_Folder" data-name="Empty Folder"><path d="m7 18v-7a2 2 0 0 1 2-2h9.33a2 2 0 0 1 1.2.4l2.94 2.2a2 2 0 0 0 1.2.4h15.33a2 2 0 0 1 2 2v4z" fill="url(#linear-gradient)"/><path d="m43 19.16-3 18a1 1 0 0 1 -1 .84h-30a1 1 0 0 1 -1-.84l-3-18a1 1 0 0 1 1-1.16h36a1 1 0 0 1 1 1.16z" fill="url(#linear-gradient-2)"/><path d="m38.53 2.71c-.9-1.07-2.53-1.87-3.53-.93-1-.93-2.6-.16-3.53.93-1.07 1.29-1.25 2.87-.41 3.58s2.4.27 3.47-1c.78-.93.16-.93.94 0 1.07 1.27 2.62 1.71 3.47 1s.66-2.29-.41-3.58z" fill="#d7e9f7"/><ellipse cx="35" cy="4" fill="url(#linear-gradient-3)" rx="2" ry="3"/><path d="m40 44.88a2.13 2.13 0 0 1 -3.62 1.5l-5.38-5.38 3-3 5.38 5.38a2.11 2.11 0 0 1 .62 1.5z" fill="url(#linear-gradient-4)"/><rect fill="url(#linear-gradient-5)" height="2.83" rx="1" transform="matrix(.707 -.707 .707 .707 -18.2 34.05)" width="5.66" x="29.17" y="37.59"/><circle cx="25" cy="32" fill="url(#linear-gradient-6)" r="10"/><circle cx="25" cy="32" fill="url(#linear-gradient-7)" r="8"/><path d="m25 34c-1.43 0-1.33-2.51.32-3.05a1 1 0 1 0 -1.32-.95 1 1 0 0 1 -1 1c-1.91 0-1-4 2-4a3 3 0 0 1 1 5.85v.15a1 1 0 0 1 -1 1z" fill="#b4cde1"/><path d="m25 37a1 1 0 1 1 1-1 1 1 0 0 1 -1 1z" fill="#b4cde1"/><path d="m25 16c-1.91 0-1-4 2-4h6a1 1 0 0 0 1-1v-1a1 1 0 0 1 2 0v1a3 3 0 0 1 -3 3h-6a1 1 0 0 0 -1 1 1 1 0 0 1 -1 1z" fill="#d7e9f7"/></g></svg>