<svg height="512pt" viewBox="0 -1 512 512" width="512pt" xmlns="http://www.w3.org/2000/svg"><path d="m298.144531 384.46875v12.308594c0 8.285156 6.714844 15 15 15 8.285157 0 15-6.714844 15-15v-24.660156zm0 0" fill="#84b721"/><path d="m460.019531 285.160156c-20.917969 17.359375-47.371093 28.28125-76.28125 29.679688-22.828125 48.628906-72.238281 82.308594-129.519531 82.308594-78.980469 0-143.007812-64.027344-143.007812-143.007813 0-121.5625 141.910156-186.648437 234.1875-110.179687 41.386718-37.832032 84.492187-33.960938 112.453124-33.960938 1.160157-4.878906-.160156-10.238281-3.960937-14.058594l-42.160156-42.429687c-5.878907-5.921875-15.457031-5.890625-21.28125 0l-24.417969 24.558593c-20.703125-13.320312-43.730469-22.921874-67.703125-28.210937v-34.859375c0-8.28125-6.71875-15-15-15h-59.628906c-8.277344 0-15 6.71875-15 15v34.859375c-23.96875 5.289063-47 14.890625-67.699219 28.210937l-24.421875-24.558593c-5.820313-5.886719-15.394531-5.925781-21.277344 0l-42.160156 42.429687c-5.820313 5.847656-5.820313 15.289063 0 21.136719l24.519531 24.683594c-13.289062 20.859375-22.859375 44.078125-28.121094 68.238281h-34.539062c-8.28125 0-15 6.71875-15 15v60c0 8.28125 6.71875 15 15 15h34.539062c5.261719 24.160156 14.832032 47.378906 28.121094 68.238281l-24.519531 24.683594c-5.820313 5.847656-5.820313 15.289063 0 21.136719l42.160156 42.429687c5.878907 5.921875 15.453125 5.890625 21.277344 0l24.421875-24.558593c20.699219 13.320312 43.730469 22.921874 67.699219 28.210937v34.859375c0 8.28125 6.722656 15 15 15h59.628906c8.28125 0 15-6.71875 15-15v-34.859375c23.972656-5.289063 47-14.890625 67.703125-28.210937l24.417969 24.558593c5.824219 5.886719 15.398437 5.925781 21.28125 0l42.160156-42.429687c5.820313-5.847656 5.820313-15.289063 0-21.136719l-24.519531-24.683594c21.414062-33.605469 30.5-72.546875 30.648437-83.078125zm0 0" fill="#fcdd3f"/><path d="m345.398438 143.960938c41.382812-37.832032 84.492187-33.960938 112.453124-33.960938 1.160157-4.878906-.160156-10.238281-3.960937-14.058594l-42.160156-42.429687c-5.878907-5.921875-15.449219-5.890625-21.28125 0l-24.417969 24.558593c-20.703125-13.320312-43.730469-22.921874-67.703125-28.210937v-34.859375c0-8.28125-6.71875-15-15-15h-29.808594v111.070312c31.640625-.378906 64.019531 9.800782 91.878907 32.890626zm83.972656 224.277343c21.410156-33.609375 30.5-72.546875 30.648437-83.078125-20.917969 17.359375-47.371093 28.28125-76.28125 29.679688-22.578125 48.097656-71.429687 82.308594-130.21875 82.308594v112.851562h29.808594c8.28125 0 15-6.71875 15-15v-34.859375c23.972656-5.289063 47-14.890625 67.703125-28.210937l24.417969 24.558593c5.820312 5.882813 15.402343 5.933594 21.28125 0l42.160156-42.429687c5.820313-5.847656 5.820313-15.289063 0-21.136719zm0 0" fill="#fecf00"/><path d="m497 105h-64.230469c-73.949219 0-134.167969 59.929688-134.628906 133.78125 27.273437 30.921875 25 62.964844 25 81.21875h54.230469c74.238281 0 134.628906-60.390625 134.628906-134.628906v-65.371094c0-8.28125-6.71875-15-15-15zm0 0" fill="#84b721"/><path d="m507.769531 109.578125c-.195312.195313-185.105469 185.109375-185.300781 185.300781.976562 9.75.671875 17.847656.671875 25.121094h54.230469c74.238281 0 134.628906-60.390625 134.628906-134.628906v-65.371094c0-4.050781-1.609375-7.730469-4.230469-10.421875zm0 0" fill="#53a000"/><path d="m283.328125 350c-57.589844 0-104.441406-47.101562-104.441406-105v-30c0-8.285156 6.714843-15 15-15h29.8125c57.589843 0 104.445312 47.101562 104.445312 105v30.332031c0 18.234375-19.464843 14.667969-44.816406 14.667969zm0 0" fill="#a2d147"/><path d="m223.699219 200h-29.808594c-4.21875 0-8.03125 1.738281-10.761719 4.550781 8.738282 8.738281 137.21875 137.21875 141.160156 141.160157 2.28125-2.0625 3.621094-5.019532 3.820313-9.25.011719-.011719 0-.019532 0-.019532.050781-.664062.03125.5.03125-31.441406 0-57.898438-46.851563-105-104.441406-105zm0 0" fill="#7dbf06"/><path d="m440.851562 197.78125c-.449218.449219-117.230468 117.972656-117.710937 118.390625 0-12.996094.523437-23.410156-3.820313-38.660156l100.25-100.882813c5.839844-5.878906 15.339844-5.910156 21.210938-.058594 5.878906 5.839844 5.910156 15.328126.070312 21.210938zm0 0" fill="#a2d147"/><path d="m440.851562 197.78125s-106.285156 106.964844-117.710937 118.390625c0-8.105469.160156-14.328125-.53125-21.433594l118.171875-118.167969c5.878906 5.839844 5.910156 15.328126.070312 21.210938zm0 0" fill="#7dbf06"/><path d="m328.140625 376.578125c-9.359375 5.671875-19.410156 10.28125-30 13.691406v-49.078125l-55.261719-55.621094c-5.839844-5.871093-5.808594-15.371093.0625-21.210937 5.878906-5.839844 15.378906-5.808594 21.21875.070313l59.621094 60c3.207031 3.230468 4.640625 7.550781 4.308594 11.761718.078125 1 .050781-1.871094.050781 40.386719zm0 0" fill="#84b721"/><path d="m328.148438 349.570312c-2.742188-2.742187-78.1875-78.191406-85.207032-85.210937 5.878906-5.839844 15.378906-5.808594 21.21875.070313l59.621094 60c2.910156 2.929687 4.359375 6.75 4.359375 10.570312 0 1.140625-.03125.195312-.03125 1.441406 0 0 .011719.007813 0 .019532.039063.4375.039063 1.488281.039063 13.109374zm0 0" fill="#53a000"/></svg>