<svg height="512" viewBox="0 0 128 128" width="512" xmlns="http://www.w3.org/2000/svg"><g id="Flat"><g id="Color"><path d="m125.76 119.988c-1.737-19.24-13.313-32.912-29.889-40.252a36.766 36.766 0 0 1 -30.108 15.639h-3.589a36.765 36.765 0 0 1 -30.093-15.618c-16.55 7.343-28.106 21.01-29.841 40.231a6 6 0 0 0 5.984 6.512h111.552a6 6 0 0 0 5.984-6.512z" fill="#424242"/><path d="m62.174 98.375h3.589a39.823 39.823 0 0 0 32.837-17.346q-1.343-.675-2.73-1.293a36.766 36.766 0 0 1 -30.107 15.639h-3.589a36.765 36.765 0 0 1 -30.093-15.618c-.926.411-1.834.845-2.728 1.3a39.822 39.822 0 0 0 32.821 17.318z" fill="#212121"/><path d="m23 38.75a1.5 1.5 0 0 0 1.5-1.5v-26.25a1.5 1.5 0 0 0 -3 0v26.25a1.5 1.5 0 0 0 1.5 1.5z" fill="#212121"/><path d="m105 38.75a1.5 1.5 0 0 0 1.5-1.5v-26.25a1.5 1.5 0 0 0 -3 0v26.25a1.5 1.5 0 0 0 1.5 1.5z" fill="#212121"/><path d="m63.969 8.748c-21.869 0-38.835 20.413-38.639 41.627l.027 8.3a36.818 36.818 0 0 0 36.817 36.7h3.589a36.817 36.817 0 0 0 36.817-36.7l.027-8.3c.193-21.214-16.766-41.627-38.638-41.627z" fill="#ffc107"/><path d="m89.74 86.484a36.66 36.66 0 0 1 -23.977 8.891h-3.589a36.661 36.661 0 0 1 -23.948-8.866 45.443 45.443 0 0 0 -19.726 37.491c0 .839.026 1.672.071 2.5h90.858c.045-.828.071-1.661.071-2.5a45.445 45.445 0 0 0 -19.76-37.516z" fill="#ffc107"/><path d="m62.174 98.375h3.589a39.642 39.642 0 0 0 26.421-10.075c-.8-.629-1.607-1.238-2.444-1.814a36.66 36.66 0 0 1 -23.977 8.891h-3.589a36.661 36.661 0 0 1 -23.948-8.866c-.837.576-1.647 1.186-2.442 1.815a39.64 39.64 0 0 0 26.39 10.049z" fill="#ffa000"/><path d="m110.3 48.279c-.2-5.939-.338-10.038-3.485-13.174a13.166 13.166 0 0 0 -8.518-3.479 42.642 42.642 0 0 1 4.288 18.749l-.027 8.3a37.153 37.153 0 0 1 -.527 6.072 11.3 11.3 0 0 0 5.714-3.223c2.89-3.148 2.755-7.158 2.555-13.245z" fill="#ffa000"/><path d="m25.33 58.678-.027-8.3a42.629 42.629 0 0 1 4.289-18.749 13.17 13.17 0 0 0 -8.519 3.471c-3.147 3.136-3.285 7.235-3.484 13.174-.2 6.087-.34 10.1 2.554 13.248a11.3 11.3 0 0 0 5.715 3.223 37.043 37.043 0 0 1 -.528-6.067z" fill="#ffa000"/><path d="m63.955 87.5c18.359 0 31.423-13.413 29.491-31.5a13.48 13.48 0 0 0 -13.366-12.095c-8.062.022-8.062 4.5-16.125 4.5s-8.062-4.478-16.125-4.5a13.481 13.481 0 0 0 -13.366 12.095c-1.932 18.087 11.136 31.5 29.491 31.5z" fill="#424242"/><path d="m71.049 66.642a3.675 3.675 0 0 0 -5.12.027 2.763 2.763 0 0 1 -1.95.967 2.816 2.816 0 0 1 -1.943-.96 3.625 3.625 0 0 0 -5.163 5.09 9.675 9.675 0 0 0 14.212 0 3.648 3.648 0 0 0 -.036-5.124z" fill="#fff"/><path d="m81.33 56.011a3.679 3.679 0 0 0 -3.625-3.754 3.638 3.638 0 0 0 -3.625 3.625v5a3.637 3.637 0 0 0 3.625 3.625 3.678 3.678 0 0 0 3.625-3.753c-.004-1.186-.004-3.554 0-4.743z" fill="#fff"/><path d="m50.206 52.257a3.668 3.668 0 0 0 -3.626 3.754s0 3.557 0 4.743a3.678 3.678 0 0 0 3.626 3.753 3.636 3.636 0 0 0 3.624-3.625v-5a3.629 3.629 0 0 0 -3.624-3.625z" fill="#fff"/><g fill="#424242"><circle cx="23" cy="7.5" r="6"/><circle cx="105" cy="7.5" r="6"/><path d="m63.969 8.748c-10.53 0-19.915 4.739-26.8 12.013a57.925 57.925 0 0 0 9.339 12.69 8.977 8.977 0 0 0 6.409 2.674h22.083a8.973 8.973 0 0 0 6.4-2.674 57.936 57.936 0 0 0 9.35-12.708c-6.882-7.264-16.26-11.995-26.781-11.995z"/></g><circle cx="63.955" cy="24.125" fill="#fff" r="4.5"/><path d="m90.088 126.5-1.341-9.143a11.906 11.906 0 0 0 -11.918-10.357h-25.658a11.906 11.906 0 0 0 -11.918 10.357l-1.341 9.143z" fill="#ffa000"/><circle cx="64" cy="117" fill="#424242" r="3"/><path d="m106.915 108.911a25.1 25.1 0 0 0 -6.624 3.339c-2.942 1.9-5.722 3.692-11.277 3.75l-1.5.016.031 3 1.5-.016c6.423-.066 9.7-2.183 12.873-4.23a22.308 22.308 0 0 1 5.9-3q-.405-1.45-.903-2.859z" fill="#ffa000"/><path d="m26.069 114.766c3.173 2.049 6.453 4.168 12.886 4.234l1.5.016.031-3-1.5-.016c-5.565-.058-8.346-1.853-11.29-3.754a25.082 25.082 0 0 0 -6.611-3.335q-.5 1.412-.9 2.86a22.323 22.323 0 0 1 5.884 2.995z" fill="#ffa000"/></g></g></svg>