<?xml version="1.0" encoding="UTF-8"?>
<!-- Generator: Adobe Illustrator 24.3.0, SVG Export Plug-In . SVG Version: 6.00 Build 0)  -->
<svg fill='#842BF6' xmlns="http://www.w3.org/2000/svg" xmlns:xlink="http://www.w3.org/1999/xlink" version="1.1" id="Capa_1" x="0px" y="0px" viewBox="0 0 512 512" style="enable-background:new 0 0 512 512;" xml:space="preserve" width="512" height="512">
<g>
	<g id="Page-1_42_">
		<g id="present_day_filled_42_" transform="translate(-416.000000, -898.000000)">
			<path id="room_x2C_-space_x2C_-dimensions_x2C_-walls_x2C_-interior_x2C_-indoors" d="M852.706,1110.277     c0-6.277-3.894-11.896-9.771-14.1l-75.294-28.235c-9.845-3.692-20.346,3.586-20.346,14.1v134.742l-60.235-22.792V998.227     L928,1089.394v195.765l-75.294-28.49V1110.277z M822.588,1245.273l-45.177-17.094v-124.408l45.177,16.941V1245.273z      M656.941,998.227v195.765L416,1285.159v-195.765L656.941,998.227z M468.706,1196.865c0,10.514,10.502,17.792,20.346,14.1     l120.471-45.176c5.878-2.204,9.771-7.823,9.771-14.1v-75.294c0-10.514-10.502-17.792-20.346-14.1l-120.471,45.177     c-5.878,2.204-9.771,7.823-9.771,14.1V1196.865z M911.837,1311.244L677.287,1399.2c-3.409,1.278-7.166,1.278-10.575,0     l-234.549-87.956L672,1220.495L911.837,1311.244z M656.941,907.841v60.268L416,1059.276v-50.647c0-6.277,3.894-11.896,9.771-14.1     L656.941,907.841z M687.059,907.841l231.17,86.688c5.878,2.204,9.771,7.823,9.771,14.1v50.647l-240.941-91.167V907.841z      M498.824,1175.135v-43.129l90.353-33.882v43.129L498.824,1175.135z"/>
		</g>
	</g>
</g>















</svg>
